<?xml version="1.0" standalone="no"?>
<!DOCTYPE svg PUBLIC "-//W3C//DTD SVG 20010904//EN"
 "http://www.w3.org/TR/2001/REC-SVG-20010904/DTD/svg10.dtd">
<svg version="1.0" xmlns="http://www.w3.org/2000/svg"
 width="80.000000pt" height="80.000000pt" viewBox="0 0 80.000000 80.000000"
 preserveAspectRatio="xMidYMid meet">
<metadata>
Created by potrace 1.14, written by Peter Selinger 2001-2017
</metadata>
<g transform="translate(0.000000,80.000000) scale(0.100000,-0.100000)"
fill="#000000" stroke="none">
<path d="M23 775 c-23 -24 -23 -25 -23 -375 l0 -351 25 -24 24 -25 351 0 351
0 24 25 25 24 0 351 0 351 -25 24 -24 25 -353 -1 -353 0 -22 -24z m437 -15 c0
-5 -5 -10 -10 -10 -19 0 -50 -64 -49 -100 l1 -35 9 40 c5 22 24 55 42 73 31
33 32 33 116 30 l85 -3 33 -130 c28 -114 33 -146 33 -262 l0 -132 -71 -78
c-40 -43 -75 -82 -79 -86 -7 -8 -430 19 -439 29 -6 6 -50 275 -51 309 0 14 16
29 53 49 85 47 84 42 22 107 -30 31 -55 63 -55 69 0 21 22 55 63 98 l41 42
128 0 c79 0 128 -4 128 -10z"/>
<path d="M264 745 c-23 -15 -51 -72 -41 -82 4 -3 10 3 13 13 4 10 21 34 37 52
32 33 27 43 -9 17z"/>
<path d="M615 714 c-9 -15 -20 -44 -22 -65 -5 -34 -3 -40 20 -50 32 -15 57 -6
57 20 0 34 -21 121 -30 121 -4 0 -15 -12 -25 -26z"/>
<path d="M221 634 c0 -11 3 -14 6 -6 3 7 2 16 -1 19 -3 4 -6 -2 -5 -13z"/>
<path d="M175 570 l29 -30 193 0 c150 0 202 -3 230 -15 l36 -15 -35 42 -36 43
-223 3 -223 2 29 -30z"/>
<path d="M170 445 l-55 -35 227 0 227 0 58 35 58 35 -230 0 -230 0 -55 -35z"/>
<path d="M330 331 c0 -28 -3 -51 -7 -51 -17 0 -35 18 -29 28 3 5 -1 13 -10 16
-24 9 -29 8 -54 -14 -13 -11 -29 -20 -37 -20 -23 0 -14 -19 17 -35 50 -26 88
-17 58 13 -18 18 23 16 48 -2 18 -14 17 -16 -21 -48 -22 -18 -51 -43 -65 -56
l-25 -23 25 12 c14 7 40 25 58 41 18 16 37 26 43 23 15 -10 11 -23 -8 -28 -14
-4 -12 -5 5 -6 17 -1 22 -7 22 -26 0 -14 5 -25 11 -25 7 0 9 10 7 25 -4 20 -1
25 16 26 17 1 18 2 4 6 -10 2 -18 13 -18 24 0 22 8 19 81 -27 20 -13 39 -20
43 -17 3 3 -22 22 -56 42 -34 20 -62 41 -61 46 0 6 11 15 24 22 29 14 95 81
88 88 -3 3 -23 -8 -45 -25 -21 -16 -45 -30 -51 -30 -7 0 -13 -7 -13 -15 0 -8
-4 -15 -9 -15 -6 0 -11 21 -13 47 -4 66 -28 70 -28 4z"/>
</g>
</svg>
